<svg width="365" height="40" viewBox="0 0 365 40" fill="none" xmlns="http://www.w3.org/2000/svg">
<path d="M13.4333 14.9L9.99999 13.3333L13.4333 11.7667L15 8.33333L16.5667 11.7667L20 13.3333L16.5667 14.9L15 18.3333L13.4333 14.9ZM15 35L16.5667 31.5667L20 30L16.5667 28.4333L15 25L13.4333 28.4333L9.99999 30L13.4333 31.5667L15 35ZM8.94999 20.6167L6.66666 21.6667L8.94999 22.7167L9.99999 25L11.05 22.7167L13.3333 21.6667L11.05 20.6167L9.99999 18.3333L8.94999 20.6167ZM21.6667 20C21.6667 14.85 23.9667 10.1 27.4 6.66666H21.6667V3.33333H33.3333V15H30V8.8C27 11.7 25 15.8 25 20C25 25.5333 28.5 30.6 33.3333 33.0333V36.6667C26.5167 34.0167 21.6667 27.25 21.6667 20Z" fill="black"/>
<path d="M41.1255 19.2544C41.1255 17.4604 41.4639 15.79 42.1406 14.2432C42.8174 12.6855 43.7949 11.3374 45.0732 10.1987C46.3623 9.04932 47.9307 8.14697 49.7783 7.4917C51.6367 6.83643 53.7368 6.50879 56.0786 6.50879C58.1304 6.50879 60.0103 6.71826 61.7183 7.13721C63.437 7.54541 65.0322 8.17383 66.5039 9.02246L64.1514 12.8896C63.7109 12.5996 63.2007 12.3418 62.6206 12.1162C62.0513 11.8906 61.439 11.7026 60.7837 11.5522C60.1392 11.3911 59.4678 11.2676 58.7695 11.1816C58.082 11.0957 57.3999 11.0527 56.7231 11.0527C55.0903 11.0527 53.6348 11.2568 52.3564 11.665C51.0781 12.0625 49.9985 12.6265 49.1177 13.3569C48.2476 14.0767 47.5815 14.9414 47.1196 15.9512C46.6685 16.9502 46.4429 18.0513 46.4429 19.2544C46.4429 20.5005 46.6792 21.6445 47.1519 22.6865C47.6245 23.7285 48.3066 24.6309 49.1982 25.3936C50.1006 26.1455 51.1963 26.7363 52.4854 27.166C53.7852 27.585 55.2515 27.7944 56.8843 27.7944C57.6255 27.7944 58.3613 27.7407 59.0918 27.6333C59.8223 27.5259 60.5259 27.3809 61.2026 27.1982C61.8901 27.0049 62.5508 26.7793 63.1846 26.5215C63.8184 26.2529 64.4092 25.9629 64.957 25.6514L67.3096 29.5186C65.9346 30.3994 64.3447 31.0923 62.54 31.5972C60.7354 32.0913 58.8179 32.3384 56.7876 32.3384C54.1987 32.3384 51.9268 32.0054 49.9717 31.3394C48.0166 30.6626 46.3838 29.7388 45.0732 28.5679C43.7627 27.3862 42.7744 26.0005 42.1084 24.4106C41.4531 22.8101 41.1255 21.0913 41.1255 19.2544ZM81.5376 6.81494H86.9517L99.1333 32H93.7676L91.7534 27.7622H77.042L75.0923 32H69.7104L81.5376 6.81494ZM89.7393 23.5566L84.293 12.1162L78.9917 23.5566H89.7393ZM103.049 6.81494H115.859C117.792 6.81494 119.468 7.01904 120.886 7.42725C122.304 7.82471 123.48 8.40479 124.415 9.16748C125.35 9.93018 126.042 10.8594 126.494 11.9551C126.956 13.0508 127.187 14.2915 127.187 15.6772C127.187 16.6118 127.074 17.5034 126.848 18.3521C126.623 19.1899 126.273 19.9634 125.801 20.6724C125.339 21.3813 124.753 22.0151 124.044 22.5737C123.335 23.1216 122.503 23.5781 121.547 23.9434L127.025 32H120.773L116.036 24.8457H115.891L108.157 24.8296V32H103.049V6.81494ZM115.988 20.4146C116.955 20.4146 117.798 20.3018 118.518 20.0762C119.248 19.8506 119.855 19.5337 120.338 19.1255C120.833 18.7173 121.198 18.2231 121.434 17.6431C121.681 17.0522 121.805 16.397 121.805 15.6772C121.805 14.27 121.321 13.1851 120.354 12.4224C119.388 11.6489 117.932 11.2622 115.988 11.2622H108.157V20.4146H115.988ZM133.245 6.81494H154.692V11.2944H138.353V16.3218H152.823V20.5273H138.353V27.5366H155.03V32H133.245V6.81494ZM160.702 6.81494H182.149V11.2944H165.81V16.3218H180.28V20.5273H165.81V27.5366H182.487V32H160.702V6.81494ZM188.159 6.81494H200.969C202.903 6.81494 204.579 7.01904 205.997 7.42725C207.415 7.82471 208.591 8.40479 209.525 9.16748C210.46 9.93018 211.153 10.8594 211.604 11.9551C212.066 13.0508 212.297 14.2915 212.297 15.6772C212.297 16.6118 212.184 17.5034 211.958 18.3521C211.733 19.1899 211.384 19.9634 210.911 20.6724C210.449 21.3813 209.864 22.0151 209.155 22.5737C208.446 23.1216 207.613 23.5781 206.657 23.9434L212.136 32H205.884L201.146 24.8457H201.001L193.267 24.8296V32H188.159V6.81494ZM201.098 20.4146C202.065 20.4146 202.908 20.3018 203.628 20.0762C204.358 19.8506 204.965 19.5337 205.449 19.1255C205.943 18.7173 206.308 18.2231 206.544 17.6431C206.792 17.0522 206.915 16.397 206.915 15.6772C206.915 14.27 206.432 13.1851 205.465 12.4224C204.498 11.6489 203.042 11.2622 201.098 11.2622H193.267V20.4146H201.098Z" fill="#2D81F7"/>
<path d="M218.355 6.81494H227.588C230.285 6.81494 232.626 7.10498 234.614 7.68506C236.601 8.26514 238.245 9.09766 239.544 10.1826C240.855 11.2568 241.827 12.5674 242.461 14.1143C243.105 15.6504 243.428 17.3799 243.428 19.3027C243.428 21.1289 243.111 22.8208 242.477 24.3784C241.843 25.9253 240.876 27.2681 239.577 28.4067C238.277 29.5347 236.633 30.4209 234.646 31.0654C232.659 31.6992 230.317 32.0161 227.621 32.0161L218.355 32V6.81494ZM228.845 27.585C230.371 27.585 231.708 27.3916 232.857 27.0049C234.007 26.6074 234.963 26.0488 235.726 25.3291C236.499 24.6094 237.079 23.7393 237.466 22.7188C237.853 21.6982 238.046 20.5596 238.046 19.3027C238.046 18.0674 237.853 16.9556 237.466 15.9673C237.079 14.9683 236.499 14.125 235.726 13.4375C234.963 12.7393 234.007 12.2021 232.857 11.8262C231.708 11.4502 230.371 11.2622 228.845 11.2622H223.463V27.585H228.845ZM248.552 6.81494H269.999V11.2944H253.66V16.3218H268.129V20.5273H253.66V27.5366H270.337V32H248.552V6.81494ZM276.009 6.81494H281.117V19.8506L294.41 6.81494H300.952L288.545 18.8354L300.952 32H294.152L284.871 22.3965L281.117 26.022V32H276.009V6.81494ZM303.45 6.81494H308.558V13.3892H324.22V6.81494H329.344V32H324.22V17.7559H308.558V32H303.45V6.81494ZM335.016 19.335C335.016 17.4336 335.365 15.6934 336.063 14.1143C336.761 12.5352 337.739 11.1816 338.996 10.0537C340.263 8.91504 341.778 8.03418 343.54 7.41113C345.312 6.78809 347.272 6.47656 349.421 6.47656C351.559 6.47656 353.514 6.78809 355.286 7.41113C357.059 8.03418 358.573 8.91504 359.83 10.0537C361.098 11.1816 362.081 12.5352 362.779 14.1143C363.477 15.6934 363.826 17.4336 363.826 19.335C363.826 21.2471 363.477 23.0034 362.779 24.604C362.081 26.1938 361.098 27.5635 359.83 28.7129C358.573 29.8623 357.059 30.7593 355.286 31.4038C353.514 32.0376 351.559 32.3545 349.421 32.3545C347.272 32.3545 345.312 32.0376 343.54 31.4038C341.778 30.7593 340.263 29.8623 338.996 28.7129C337.739 27.5635 336.761 26.1938 336.063 24.604C335.365 23.0034 335.016 21.2471 335.016 19.335ZM340.124 19.335C340.124 20.6348 340.354 21.8057 340.816 22.8477C341.289 23.8896 341.939 24.7812 342.766 25.5225C343.604 26.2529 344.587 26.8169 345.715 27.2144C346.854 27.6118 348.089 27.8105 349.421 27.8105C350.753 27.8105 351.983 27.6118 353.111 27.2144C354.25 26.8169 355.232 26.2529 356.06 25.5225C356.887 24.7812 357.537 23.8896 358.009 22.8477C358.482 21.8057 358.718 20.6348 358.718 19.335C358.718 18.0352 358.482 16.8696 358.009 15.8384C357.537 14.8071 356.887 13.937 356.06 13.228C355.232 12.5083 354.25 11.9604 353.111 11.5845C351.983 11.2085 350.753 11.0205 349.421 11.0205C348.089 11.0205 346.854 11.2085 345.715 11.5845C344.587 11.9604 343.604 12.5083 342.766 13.228C341.939 13.937 341.289 14.8071 340.816 15.8384C340.354 16.8696 340.124 18.0352 340.124 19.335Z" fill="black"/>
</svg>
